<?xml version="1.0" standalone="no"?>
<!DOCTYPE svg PUBLIC "-//W3C//DTD SVG 20010904//EN"
 "http://www.w3.org/TR/2001/REC-SVG-20010904/DTD/svg10.dtd">
<svg version="1.0" xmlns="http://www.w3.org/2000/svg"
 width="1024.000000pt" height="1024.000000pt" viewBox="0 0 1024.000000 1024.000000"
 preserveAspectRatio="xMidYMid meet">

<g transform="translate(0.000000,1024.000000) scale(0.100000,-0.100000)"
fill="#000000" stroke="none">
<path d="M0 5120 l0 -5120 5120 0 5120 0 0 5120 0 5120 -5120 0 -5120 0 0
-5120z m4520 3405 c45 -23 88 -73 100 -114 6 -22 10 -252 10 -596 0 -524 -2
-563 -19 -600 -37 -81 -96 -119 -181 -119 -64 1 -105 20 -147 68 -58 66 -58
61 -58 666 0 545 0 556 21 601 48 103 174 146 274 94z m1918 -2 c20 -11 50
-39 67 -62 l29 -41 1 -513 c0 -504 0 -513 22 -559 83 -180 322 -265 388 -138
34 66 2 132 -86 179 -66 35 -70 50 -75 234 -2 92 0 176 4 188 7 19 61 -32 453
-425 244 -246 446 -451 447 -457 6 -16 -1030 -11 -1106 5 -196 42 -366 210
-417 411 -12 49 -15 144 -15 554 0 482 1 496 21 538 49 101 165 138 267 86z
m-2478 -473 l0 -160 -478 0 c-522 0 -534 -1 -656 -60 -115 -55 -231 -173 -296
-302 -76 -153 -71 58 -68 -2628 3 -2304 4 -2407 21 -2460 78 -233 247 -409
468 -486 l84 -29 610 -3 c417 -2 622 0 647 8 99 29 108 169 15 223 -17 9 -169
13 -617 17 -667 6 -640 3 -758 81 -103 67 -185 188 -211 307 -6 29 -11 87 -11
129 l0 76 39 -49 c97 -121 276 -231 448 -275 72 -18 116 -19 828 -19 l752 0
34 23 c70 47 73 151 6 199 l-32 23 -735 5 c-809 6 -779 4 -912 70 -84 42 -144
88 -219 168 -81 86 -131 171 -172 292 l-32 95 -3 1975 c-2 1465 0 1989 8 2030
28 134 120 253 237 308 l58 27 473 3 472 3 0 -170 c0 -274 35 -389 151 -502
183 -180 453 -179 638 2 114 111 150 233 151 507 l0 162 495 0 495 0 0 -109
c0 -60 5 -143 10 -185 40 -286 245 -532 534 -640 l81 -31 578 -5 579 -5 24
-28 24 -28 0 -590 0 -591 48 40 c26 22 97 86 157 143 61 56 130 111 154 122
76 34 148 11 199 -63 43 -63 25 -121 -60 -191 -29 -24 -100 -86 -158 -139 -58
-53 -163 -147 -235 -210 -71 -63 -177 -157 -235 -210 -58 -53 -274 -246 -480
-430 -601 -536 -758 -685 -766 -725 -8 -46 14 -87 96 -172 36 -37 164 -171
284 -298 120 -126 233 -245 252 -262 48 -47 85 -45 149 8 27 22 54 46 59 53
38 44 647 593 690 621 38 25 119 24 153 -1 65 -48 89 -124 59 -182 -9 -17
-162 -164 -340 -326 -178 -162 -326 -302 -330 -311 -3 -9 -6 -80 -6 -156 0
-167 -17 -253 -66 -336 -66 -112 -190 -200 -314 -223 -35 -6 -332 -9 -810 -8
l-755 3 55 27 c30 14 141 63 245 108 870 374 907 392 932 429 26 39 29 87 9
134 -7 18 -103 124 -211 237 -109 113 -236 246 -283 297 -94 103 -142 130
-212 120 -62 -8 -98 -44 -185 -184 -44 -70 -112 -177 -151 -238 -39 -60 -117
-182 -174 -270 -129 -202 -177 -277 -355 -554 -79 -124 -147 -237 -150 -252
-8 -37 17 -83 52 -98 22 -9 286 -11 1048 -9 l1020 3 75 29 c200 76 332 193
416 371 50 106 64 173 71 347 7 184 16 207 89 239 76 34 167 6 211 -66 16 -27
18 -51 16 -210 -2 -157 -5 -192 -28 -279 -50 -191 -138 -340 -282 -476 -102
-97 -150 -131 -256 -180 -102 -48 -199 -75 -319 -90 -67 -8 -648 -10 -2098 -8
l-2005 3 -85 24 c-330 92 -599 333 -710 638 -69 190 -63 -8 -67 2477 -2 1237
0 2351 5 2475 9 216 11 230 41 321 43 128 103 238 179 326 157 185 368 305
583 333 35 5 279 9 542 10 l477 1 0 -160z m1930 0 l0 -160 -495 0 -495 0 0
160 0 160 495 0 495 0 0 -160z"/>
<path d="M4490 6205 c-8 -2 -49 -9 -90 -15 -380 -62 -741 -375 -871 -756 -81
-238 -79 -523 5 -758 210 -587 856 -904 1438 -707 534 181 874 734 782 1272
-71 414 -352 757 -737 899 -127 47 -209 61 -362 65 -82 2 -157 2 -165 0z"/>
</g>
</svg>
